# xmcd CD database file
#
# Track frame offsets:
#	150
#	10473
#	22825
#	34758
#	46217
#	56934
#	68972
#	83695
#	95969
#	108103
#	122143
#	133426
#	146328
#	158886
#	172085
#	184065
#	195615
#	208450
#	225409
#	240167
#	255124
#	269380
#	285828
#	302334
#	318340
#
# Disc length: 4448 seconds
#
# Revision: 0
# Processed by: cddbd v1.5.2PL0 Copyright (c) Steve Scherf et al.
# Submitted via: CDex 1.70beta2
#
DISCID=58115e19
DTITLE=Various Artist - Jazz Roads CD380 - Bebop - White Bebop Boys Vol.4 (1949)
DYEAR=1900
DGENRE=Jazz
TTITLE0=George Wallington Trio - Racing
TTITLE1=George Wallington Trio - Fairyland
TTITLE2=George Wallington Trio - Knockout
TTITLE3=george Wallington Trio - Igloo
TTITLE4=Stan Getz Quintet - Skull Buster
TTITLE5=Stan Getz Quintet - Ante Room
TTITLE6=Stan Getz Quintet - Pennies From Heaven
TTITLE7=Stan Getz Quintet - Poop Deck
TTITLE8=Brew Moore - The Mud Bug
TTITLE9=Brew Moore - Gold Rush
TTITLE10=Brew Moore - Lestorian Mode
TTITLE11=Brew Moore - Kai's Kid
TTITLE12=Stan Getz Quartet - Indian Summer
TTITLE13=Stan Getz Quartet - Long Island Sound
TTITLE14=Stan Getz Quartet - Mar Cia
TTITLE15=Stan Getz Quartet - Crazy Chords
TTITLE16=Lee Konitz Quintet - Marshmallow
TTITLE17=Lee Konitz Quintet - Fishin' Around
TTITLE18=Kai Winding Sextet - Sid's Bounce
TTITLE19=Kai Winding Sextet - Broadway
TTITLE20=Kai Winding Sextet - Broadway
TTITLE21=Kai Winding Sextet - Waterworks
TTITLE22=Kai Winding Sextet - Waterworks
TTITLE23=Kai Winding Sextet - A Night On Bop Mountain
TTITLE24=Kai Winding Sextet - A Night On Bop Mountain
EXTD=
EXTT0=
EXTT1=
EXTT2=
EXTT3=
EXTT4=
EXTT5=
EXTT6=
EXTT7=
EXTT8=
EXTT9=
EXTT10=
EXTT11=
EXTT12=
EXTT13=
EXTT14=
EXTT15=
EXTT16=
EXTT17=
EXTT18=
EXTT19=
EXTT20=
EXTT21=
EXTT22=
EXTT23=
EXTT24=
PLAYORDER=
